<svg width="19" height="25" viewBox="0 0 19 25" fill="none" xmlns="http://www.w3.org/2000/svg">
<path d="M16.1864 13.9453C15.3825 15.6019 14.2933 17.2522 13.1796 18.7341C12.123 20.1311 10.9933 21.4694 9.79537 22.743C8.59737 21.4694 7.46767 20.1312 6.41116 18.7341C5.29741 17.2522 4.20821 15.6019 3.40434 13.9453C2.59128 12.2715 2.12491 10.7039 2.12491 9.35925C2.12491 7.29072 2.93305 5.30692 4.37154 3.84426C5.81002 2.38159 7.76103 1.55987 9.79537 1.55987C11.8297 1.55987 13.7807 2.38159 15.2192 3.84426C16.6577 5.30692 17.4658 7.29072 17.4658 9.35925C17.4658 10.7039 16.9979 12.2715 16.1864 13.9453ZM9.79537 24.958C9.79537 24.958 18.9999 16.0885 18.9999 9.35925C18.9999 6.87702 18.0301 4.49646 16.304 2.74126C14.5778 0.98606 12.2366 0 9.79537 0C7.35417 0 5.01296 0.98606 3.28677 2.74126C1.56058 4.49646 0.59082 6.87702 0.59082 9.35925C0.59082 16.0885 9.79537 24.958 9.79537 24.958Z" fill="white"/>
<path d="M9.79514 12.4791C8.98141 12.4791 8.20101 12.1504 7.62561 11.5653C7.05022 10.9802 6.72696 10.1867 6.72696 9.35931C6.72696 8.5319 7.05022 7.73838 7.62561 7.15331C8.20101 6.56825 8.98141 6.23956 9.79514 6.23956C10.6089 6.23956 11.3893 6.56825 11.9647 7.15331C12.5401 7.73838 12.8633 8.5319 12.8633 9.35931C12.8633 10.1867 12.5401 10.9802 11.9647 11.5653C11.3893 12.1504 10.6089 12.4791 9.79514 12.4791ZM9.79514 14.0389C11.0157 14.0389 12.1863 13.5459 13.0494 12.6683C13.9125 11.7907 14.3974 10.6004 14.3974 9.35931C14.3974 8.1182 13.9125 6.92792 13.0494 6.05032C12.1863 5.17272 11.0157 4.67969 9.79514 4.67969C8.57455 4.67969 7.40394 5.17272 6.54085 6.05032C5.67775 6.92792 5.19287 8.1182 5.19287 9.35931C5.19287 10.6004 5.67775 11.7907 6.54085 12.6683C7.40394 13.5459 8.57455 14.0389 9.79514 14.0389Z" fill="white"/>
</svg>
