<svg width="121" height="121" viewBox="0 0 121 121" fill="none" xmlns="http://www.w3.org/2000/svg">
<path d="M103.607 0C94.0749 0.0109414 86.3502 7.73562 86.3393 17.2679C86.3393 27.8183 93.9096 37.9192 98.5735 43.1696H30.2187C21.8741 43.1696 15.1094 49.9343 15.1094 58.279C15.1094 66.6237 21.8741 73.3884 30.2187 73.3884H97.1317C104.284 73.3884 110.083 79.1867 110.083 86.3393C110.083 93.4919 104.284 99.2902 97.1317 99.2902H38.8527V84.1808C38.8527 82.9887 37.8863 82.0223 36.6942 82.0223H25.9018V92.8147C25.9018 94.0068 24.9354 94.9732 23.7433 94.9732H15.1094C13.9173 94.9732 12.9509 94.0068 12.9509 92.8147V82.0223H2.15848C0.966383 82.0223 0 82.9887 0 84.1808V118.717C0 119.909 0.966383 120.875 2.15848 120.875H36.6942C37.8863 120.875 38.8527 119.909 38.8527 118.717V103.607H97.1317C106.668 103.607 114.4 95.8761 114.4 86.3393C114.4 76.8025 106.668 69.0714 97.1317 69.0714H30.2187C24.2583 69.0714 19.4263 64.2395 19.4263 58.279C19.4263 52.3185 24.2583 47.4866 30.2187 47.4866H103.607C103.647 47.4863 103.686 47.4849 103.725 47.4824C103.792 47.4784 103.858 47.4714 103.923 47.4613C103.929 47.4613 103.935 47.4613 103.94 47.4613C104.001 47.4513 104.062 47.4386 104.121 47.4234C104.178 47.4088 104.235 47.3919 104.29 47.3728C104.372 47.3467 104.452 47.3157 104.53 47.28C104.539 47.2759 104.547 47.2717 104.556 47.2674C104.564 47.2632 104.573 47.259 104.581 47.2547C104.636 47.2261 104.689 47.1952 104.741 47.162C104.795 47.1291 104.847 47.094 104.897 47.0566C104.904 47.051 104.911 47.0454 104.918 47.0397C104.971 46.9999 105.021 46.9577 105.07 46.9133C105.076 46.9075 105.129 46.8583 105.137 46.85C106.05 46.0016 120.875 31.998 120.875 17.2679C120.864 7.73562 113.139 0.0109414 103.607 0H103.607ZM103.249 8.64236C105.599 8.54475 107.887 9.40995 109.584 11.038C111.281 12.666 112.241 14.916 112.241 17.2678C112.236 22.0342 108.373 25.8968 103.607 25.9018C98.9174 25.8896 95.0949 22.1359 94.9975 17.4471C94.9002 12.7583 98.5636 8.84921 103.249 8.64235V8.64236ZM103.607 12.9509C101.223 12.9509 99.2902 14.8837 99.2902 17.2679C99.2902 19.652 101.223 21.5848 103.607 21.5848C105.991 21.5848 107.924 19.652 107.924 17.2679C107.924 14.8837 105.991 12.9509 103.607 12.9509ZM17.2679 82.0223V90.6562H21.5848V82.0223H17.2679ZM23.6548 107.924C23.6843 107.923 23.7138 107.923 23.7433 107.924H28.0603C29.2524 107.924 30.2187 108.89 30.2187 110.083C30.2187 111.275 29.2524 112.241 28.0603 112.241H23.7433C22.5512 112.266 21.565 111.319 21.5406 110.127C21.5161 108.935 22.4627 107.949 23.6548 107.924Z" fill="#E8D52B"/>
</svg>
