<svg width="120" height="89" viewBox="0 0 120 89" fill="none" xmlns="http://www.w3.org/2000/svg">
<path d="M6 0C2.68625 0 0 2.68625 0 6V74.5C0 78.328 2.47523 79.7245 4.51123 80.228C5.77548 80.5405 6.97909 79.5869 6.9961 78.2846C7.09435 70.7404 13.2812 64.25 21.25 64.25C24.3225 64.25 27.17 65.2272 29.5 66.8847C31.83 65.2272 34.6775 64.25 37.75 64.25C45.7915 64.25 52.0221 70.8613 52.0054 78.4975C52.0029 79.6028 52.8982 80.5 54.0034 80.5H82.5C83.6045 80.5 84.5 79.6045 84.5 78.5V6C84.5 2.68625 81.8138 0 78.5 0H6ZM42.25 19C43.355 19 44.25 19.895 44.25 21V59.5C44.25 60.605 43.355 61.5 42.25 61.5C41.145 61.5 40.25 60.605 40.25 59.5V21C40.25 19.895 41.145 19 42.25 19ZM23.25 23.25C24.355 23.25 25.25 24.145 25.25 25.25V26.25C25.25 27.355 24.355 28.25 23.25 28.25C22.145 28.25 21.25 27.355 21.25 26.25V25.25C21.25 24.145 22.145 23.25 23.25 23.25ZM61.25 23.25C62.355 23.25 63.25 24.145 63.25 25.25V55.25C63.25 56.355 62.355 57.25 61.25 57.25C60.145 57.25 59.25 56.355 59.25 55.25V25.25C59.25 24.145 60.145 23.25 61.25 23.25ZM90.0239 28C89.1822 28 88.5 28.6822 88.5 29.5239V40.9761C88.5 41.8178 89.1822 42.5 90.0239 42.5H112.596C116.541 42.5 119.879 39.413 119.997 35.4697C120.118 31.3722 116.82 28 112.75 28H90.0239ZM23.25 32C24.355 32 25.25 32.895 25.25 34V55.25C25.25 56.355 24.355 57.25 23.25 57.25C22.145 57.25 21.25 56.355 21.25 55.25V34C21.25 32.895 22.145 32 23.25 32ZM114.579 46.3852C114.465 46.3811 114.351 46.3865 114.235 46.4018C113.198 46.5398 113.917 46.5 97.7891 46.5C96.5278 46.5 95.5816 47.6531 95.8276 48.8901L96.8223 53.8901C97.0083 54.8259 97.8294 55.5 98.7837 55.5H116.468C117.87 55.5 118.837 54.0946 118.336 52.7851L116.376 47.666C116.086 46.9058 115.371 46.4142 114.579 46.3852ZM90.0239 46.5C89.1822 46.5 88.5 47.1822 88.5 48.0239V66.9228C88.5 68.2501 90.0863 68.9655 91.0586 68.062C93.6031 65.6975 97.0107 64.25 100.75 64.25C108.294 64.25 114.372 70.1144 114.957 77.3271C115.099 79.0786 117.241 79.8409 118.427 78.5444C119.403 77.4772 120 76.0565 120 74.5V61.5C120 60.3955 119.104 59.5 118 59.5H95.5C94.545 59.5 93.7251 58.8251 93.5376 57.8901L91.5185 47.727C91.376 47.0095 90.7467 46.5 90.0239 46.5L90.0239 46.5ZM21.25 68.25C15.5975 68.25 11 72.8475 11 78.5C11 84.1525 15.5975 88.75 21.25 88.75C24.63 88.75 27.6325 87.1052 29.5 84.5752C31.3675 87.1052 34.37 88.75 37.75 88.75C43.4025 88.75 48 84.1525 48 78.5C48 72.8475 43.4025 68.25 37.75 68.25C34.37 68.25 31.3675 69.8948 29.5 72.4248C27.6325 69.8948 24.63 68.25 21.25 68.25ZM100.75 68.25C95.0891 68.25 90.5 72.8391 90.5 78.5C90.5 84.1609 95.0891 88.75 100.75 88.75C106.411 88.75 111 84.1609 111 78.5C111 72.8391 106.411 68.25 100.75 68.25Z" fill="#E8D52B"/>
</svg>
