<svg width="104" height="104" viewBox="0 0 104 104" fill="none" xmlns="http://www.w3.org/2000/svg">
<path d="M44.7798 0.407403C39.0315 0.619709 33.3738 1.90709 28.0996 4.20294C27.9534 6.81331 28.0451 10.0282 29.8785 11.3115C34.2233 14.3488 34.4015 17.4558 34.2575 18.7081C34.4162 19.123 34.6976 19.4797 35.0641 19.7308C37.0835 20.7033 39.3887 20.9044 41.546 20.2961C44.3025 19.6316 47.2118 20.2455 49.4648 21.967C51.6175 24.0014 52.8848 26.7999 52.9938 29.7598C52.9961 29.8816 52.9864 30.0035 52.965 30.1235C52.7321 31.4983 53.1482 32.9035 54.0922 33.9298C55.0861 34.7293 57.8138 35.651 64.8918 32.8459C68.9383 31.3581 73.2796 30.8497 77.5604 31.3622C79.5097 31.8473 81.3771 32.6165 83.1024 33.6453C85.7254 35.1764 88.5744 36.2824 91.5433 36.9223C86.9178 14.9929 67.1764 -0.422001 44.7798 0.407414L44.7798 0.407403ZM24.3581 6.03588C20.2261 8.31002 16.4653 11.2014 13.2056 14.61C16.2577 16.0583 19.9302 18.1815 20.9227 21.8122C21.2052 22.8803 21.4335 23.962 21.6069 25.0532C21.9707 27.1624 22.1074 27.9486 23.7459 29.072C24.5803 29.5995 25.4781 30.0194 26.4179 30.3215C29.5574 31.0445 31.9773 33.5476 32.5938 36.7098C33.7892 41.9035 34.6516 45.6567 29.6805 50.3219C26.8456 52.5757 23.3378 53.8155 19.7163 53.8437C18.7369 53.7798 17.5359 54.0265 17.2892 54.4163C17.147 54.6387 17.1361 55.4264 17.9914 56.9695C20.4906 61.4699 26.832 58.8456 27.1021 58.7304C27.1621 58.7044 27.2234 58.6816 27.2858 58.662C27.9322 58.4656 33.6578 56.8119 36.9475 59.555C38.6765 61.1271 39.4391 63.4999 38.9497 65.7849C38.1807 71.4295 34.6816 76.3334 29.5941 78.8964L19.4066 83.7471C24.8891 87.7435 31.1899 90.4739 37.8549 91.7415C40.089 88.7878 41.4108 85.2455 41.6577 81.5504C41.5259 77.1909 44.6012 73.39 48.8922 72.6089C49.9064 72.1892 50.9441 71.8285 52 71.5286V61.2188C52.001 60.6225 52.0982 60.0303 52.288 59.465L55.9719 48.4061C56.7226 46.1463 58.8374 44.6222 61.2187 44.625H92.5156C92.4636 43.311 92.3446 42.016 92.1843 40.7322C88.3766 40.1522 84.7133 38.8557 81.3883 36.9115C79.9844 36.0672 78.4709 35.4202 76.8906 34.9885C73.2816 34.5958 69.6306 35.0394 66.2206 36.2849C59.5027 38.9478 54.6235 39.1171 51.7515 36.7747C49.8209 34.9728 48.9033 32.3347 49.2991 29.7238C49.2103 27.8669 48.4292 26.1106 47.1097 24.8011C45.6741 23.7974 43.8688 23.4785 42.1762 23.9296C37.9791 24.6516 34.7996 24.1971 32.7162 22.5792C31.5236 21.6911 30.7404 20.3586 30.5447 18.8845C30.5281 18.6651 30.55 18.4445 30.6096 18.2327C30.6042 18.2327 30.8635 16.4961 27.7647 14.3292C25.029 12.4146 24.3946 9.07291 24.3581 6.03588ZM10.656 17.4909C-4.97455 36.7456 -2.52114 64.9264 16.2017 81.1903L28.0312 75.5582C31.9714 73.5438 34.6802 69.7327 35.2874 65.3492C35.5626 64.3088 35.3005 63.1998 34.5888 62.3927C33.1304 61.1719 29.6805 61.812 28.4525 62.1658C25.0838 63.5774 18.031 64.6356 14.7684 58.7592C13.3405 56.1828 13.1459 54.0536 14.1851 52.4285C15.7731 49.943 19.4318 50.1311 19.8496 50.1598C22.489 50.1025 25.0442 49.2197 27.1561 47.6355C30.5855 44.418 30.1522 42.5427 28.9999 37.5345C28.4165 34.9901 27.2552 34.5581 25.1431 33.7786C23.9141 33.3756 22.7424 32.8152 21.6573 32.1113C19.4658 30.6836 18.0949 28.2888 17.9734 25.6761C17.8198 24.7025 17.6167 23.7374 17.3648 22.7845C16.7011 20.3537 13.2174 18.656 10.656 17.4909H10.656ZM61.2187 48.3125C60.4259 48.3129 59.7224 48.8206 59.4722 49.5729L56.2024 59.375H72.4973L73.8801 48.3125H61.2187ZM77.5964 48.3125L76.2136 59.375H83.0988L81.716 48.3125H77.5964ZM85.4323 48.3125L86.8151 59.375H103.11L99.8402 49.5729C99.59 48.8206 98.8865 48.3129 98.0937 48.3125H85.4323ZM55.6874 63.0625V101.781C55.6874 102.8 56.5129 103.625 57.5312 103.625H101.781C102.799 103.625 103.625 102.8 103.625 101.781V63.0625H87.0312V72.2812C87.0312 73.2995 86.2057 74.125 85.1874 74.125H74.1249C73.1067 74.125 72.2812 73.2995 72.2812 72.2812V63.0625H55.6874ZM75.9687 63.0625V70.4375H83.3437V63.0625H75.9687ZM51.9999 75.389C50.9097 75.7511 50.2143 76.0552 50.1994 76.0624C50.057 76.1267 49.9069 76.1727 49.7529 76.1992C47.1756 76.6002 45.292 78.8454 45.3452 81.4532C45.2085 85.332 44.0008 89.0974 41.8557 92.332C43.3737 92.4842 44.9102 92.5599 46.4687 92.5625C48.3175 92.5596 50.1646 92.4466 51.9999 92.224V75.389ZM86.9556 92.5625C86.9808 92.562 87.006 92.562 87.0312 92.5625H94.4062C95.4245 92.5625 96.2499 93.388 96.2499 94.4062C96.2499 95.4245 95.4245 96.25 94.4062 96.25H87.0312C86.0129 96.2709 85.1705 95.4623 85.1496 94.4441C85.1287 93.4258 85.9373 92.5834 86.9556 92.5625Z" fill="#E8D52B"/>
</svg>
