<svg width="92" height="99" viewBox="0 0 92 99" fill="none" xmlns="http://www.w3.org/2000/svg">
<path d="M67.2887 0.746948C65.6629 0.746948 63.7463 1.09255 61.128 1.81034C54.5394 3.60924 15.9066 14.6774 15.3333 14.8546C9.60045 17.0877 5.97247 19.2854 3.69643 21.873C6.36607 20.0032 9.54911 18.8246 13.1429 18.8246H74.4762V11.2391C74.4762 7.57037 74.4505 0.746948 67.2887 0.746948ZM13.1429 23.3617C4.99702 23.3617 0 31.2928 0 36.9731V85.4637C0 92.491 5.53609 98.2244 12.3214 98.2244H79.6786C86.4639 98.2244 92 92.491 92 85.4637V36.6187C92 29.68 85.7366 23.3617 78.8571 23.3617H13.1429ZM75.5714 55.1217C78.5919 55.1217 81.0476 57.6561 81.0476 60.7931C81.0476 63.9301 78.5919 66.4645 75.5714 66.4645C72.5424 66.4645 70.0952 63.9301 70.0952 60.7931C70.0952 57.6561 72.5424 55.1217 75.5714 55.1217Z" fill="#E8D52B"/>
</svg>
