<svg width="51" height="51" viewBox="0 0 51 51" fill="none" xmlns="http://www.w3.org/2000/svg">
<rect width="51" height="51" rx="25.5" fill="#E8D52B"/>
<path d="M29.0003 23.6667H26.3337V18.3334C26.3337 17.9797 26.1932 17.6406 25.9431 17.3905C25.6931 17.1405 25.354 17 25.0003 17C24.6467 17 24.3076 17.1405 24.0575 17.3905C23.8075 17.6406 23.667 17.9797 23.667 18.3334V25C23.667 25.3536 23.8075 25.6928 24.0575 25.9428C24.3076 26.1929 24.6467 26.3334 25.0003 26.3334H29.0003C29.354 26.3334 29.6931 26.1929 29.9431 25.9428C30.1932 25.6928 30.3337 25.3536 30.3337 25C30.3337 24.6464 30.1932 24.3073 29.9431 24.0572C29.6931 23.8072 29.354 23.6667 29.0003 23.6667ZM25.0003 11.6667C22.3632 11.6667 19.7854 12.4487 17.5927 13.9138C15.4001 15.3788 13.6911 17.4612 12.6819 19.8976C11.6728 22.3339 11.4087 25.0148 11.9232 27.6012C12.4377 30.1876 13.7075 32.5634 15.5722 34.4281C17.4369 36.2928 19.8127 37.5627 22.3991 38.0772C24.9855 38.5916 27.6664 38.3276 30.1028 37.3184C32.5391 36.3093 34.6215 34.6003 36.0866 32.4076C37.5517 30.215 38.3337 27.6371 38.3337 25C38.3337 23.2491 37.9888 21.5153 37.3187 19.8976C36.6487 18.2799 35.6665 16.81 34.4284 15.5719C33.1903 14.3338 31.7205 13.3517 30.1028 12.6816C28.4851 12.0116 26.7513 11.6667 25.0003 11.6667ZM25.0003 35.6667C22.8907 35.6667 20.8284 35.0411 19.0742 33.869C17.3201 32.697 15.953 31.0311 15.1456 29.082C14.3383 27.1329 14.127 24.9882 14.5386 22.9191C14.9502 20.8499 15.9661 18.9493 17.4579 17.4575C18.9496 15.9658 20.8502 14.9499 22.9194 14.5383C24.9885 14.1267 27.1332 14.338 29.0823 15.1453C31.0314 15.9526 32.6973 17.3198 33.8693 19.0739C35.0414 20.8281 35.667 22.8904 35.667 25C35.667 27.829 34.5432 30.5421 32.5428 32.5425C30.5424 34.5429 27.8293 35.6667 25.0003 35.6667Z" fill="white"/>
</svg>
