<svg width="51" height="51" viewBox="0 0 51 51" fill="none" xmlns="http://www.w3.org/2000/svg">
<rect width="51" height="51" rx="25.5" fill="#E8D52B"/>
<path d="M34.3337 14.3333H15.667C14.6061 14.3333 13.5887 14.7547 12.8386 15.5049C12.0884 16.255 11.667 17.2724 11.667 18.3333V31.6666C11.667 32.7275 12.0884 33.7449 12.8386 34.4951C13.5887 35.2452 14.6061 35.6666 15.667 35.6666H34.3337C35.3945 35.6666 36.4119 35.2452 37.1621 34.4951C37.9122 33.7449 38.3337 32.7275 38.3337 31.6666V18.3333C38.3337 17.2724 37.9122 16.255 37.1621 15.5049C36.4119 14.7547 35.3945 14.3333 34.3337 14.3333ZM33.787 17L25.947 24.84C25.823 24.9649 25.6756 25.0641 25.5131 25.1318C25.3506 25.1995 25.1763 25.2344 25.0003 25.2344C24.8243 25.2344 24.65 25.1995 24.4876 25.1318C24.3251 25.0641 24.1776 24.9649 24.0537 24.84L16.2137 17H33.787ZM35.667 31.6666C35.667 32.0203 35.5265 32.3594 35.2765 32.6095C35.0264 32.8595 34.6873 33 34.3337 33H15.667C15.3134 33 14.9742 32.8595 14.7242 32.6095C14.4741 32.3594 14.3337 32.0203 14.3337 31.6666V18.88L22.1737 26.72C22.9237 27.469 23.9403 27.8898 25.0003 27.8898C26.0603 27.8898 27.077 27.469 27.827 26.72L35.667 18.88V31.6666Z" fill="white"/>
</svg>
