<svg width="51" height="51" viewBox="0 0 51 51" fill="none" xmlns="http://www.w3.org/2000/svg">
<rect width="51" height="51" rx="25.5" fill="#E8D52B"/>
<path d="M34.9201 26.3332C34.6268 26.3332 34.3201 26.2398 34.0268 26.1732C33.4328 26.0423 32.849 25.8685 32.2801 25.6532C31.6616 25.4282 30.9817 25.4398 30.3712 25.686C29.7608 25.9321 29.2629 26.3954 28.9735 26.9865L28.6801 27.5865C27.3815 26.8641 26.1881 25.9668 25.1335 24.9198C24.0865 23.8652 23.1892 22.6718 22.4668 21.3732L23.0268 20.9998C23.618 20.7104 24.0812 20.2126 24.3273 19.6021C24.5735 18.9916 24.5852 18.3117 24.3601 17.6932C24.1484 17.1231 23.9747 16.5396 23.8401 15.9465C23.7735 15.6532 23.7201 15.3465 23.6801 15.0398C23.5182 14.1007 23.0263 13.2502 22.293 12.6415C21.5596 12.0328 20.6331 11.706 19.6801 11.7198H15.6801C15.1055 11.7144 14.5365 11.8329 14.0117 12.0672C13.487 12.3015 13.0189 12.6461 12.6394 13.0776C12.2598 13.509 11.9776 14.0172 11.8121 14.5675C11.6466 15.1178 11.6016 15.6973 11.6801 16.2665C12.3905 21.8524 14.9415 27.0423 18.9303 31.0167C22.9192 34.991 28.1184 37.5232 33.7068 38.2132H34.2135C35.1967 38.2146 36.146 37.8539 36.8801 37.1998C37.302 36.8226 37.6389 36.3601 37.8688 35.8429C38.0986 35.3258 38.2161 34.7658 38.2135 34.1998V30.1998C38.1971 29.2737 37.8599 28.3819 37.2593 27.6767C36.6586 26.9715 35.8319 26.4967 34.9201 26.3332ZM35.5868 34.3332C35.5866 34.5225 35.546 34.7096 35.4678 34.882C35.3897 35.0544 35.2757 35.2082 35.1335 35.3332C34.9849 35.4625 34.8108 35.5591 34.6224 35.6165C34.434 35.6739 34.2356 35.691 34.0401 35.6665C29.0467 35.0263 24.4085 32.7418 20.8571 29.1736C17.3057 25.6053 15.0433 20.9563 14.4268 15.9598C14.4056 15.7645 14.4242 15.567 14.4815 15.379C14.5388 15.1911 14.6336 15.0168 14.7601 14.8665C14.8851 14.7243 15.0389 14.6103 15.2113 14.5321C15.3837 14.454 15.5708 14.4134 15.7601 14.4132H19.7601C20.0702 14.4063 20.373 14.5077 20.6163 14.6999C20.8597 14.8922 21.0284 15.1633 21.0935 15.4665C21.1468 15.831 21.2135 16.191 21.2935 16.5465C21.4475 17.2494 21.6525 17.9401 21.9068 18.6132L20.0401 19.4798C19.8805 19.5531 19.737 19.6571 19.6177 19.786C19.4984 19.9148 19.4057 20.066 19.345 20.2308C19.2843 20.3955 19.2568 20.5707 19.2639 20.7461C19.2711 20.9216 19.3129 21.0939 19.3868 21.2532C21.3057 25.3635 24.6098 28.6676 28.7201 30.5865C29.0448 30.7199 29.4089 30.7199 29.7335 30.5865C29.8998 30.527 30.0526 30.4351 30.183 30.3161C30.3135 30.1971 30.419 30.0533 30.4935 29.8932L31.3201 28.0265C32.0094 28.273 32.7129 28.4778 33.4268 28.6398C33.7824 28.7198 34.1424 28.7865 34.5068 28.8398C34.81 28.9049 35.0811 29.0736 35.2734 29.317C35.4656 29.5603 35.567 29.8631 35.5601 30.1732L35.5868 34.3332Z" fill="white"/>
</svg>
