<svg width="51" height="51" viewBox="0 0 51 51" fill="none" xmlns="http://www.w3.org/2000/svg">
<rect width="51" height="51" rx="25.5" fill="#E8D52B"/>
<path d="M24.9997 11.6666C22.1707 11.6666 19.4576 12.7904 17.4572 14.7908C15.4568 16.7912 14.333 19.5043 14.333 22.3333C14.333 29.5333 23.733 37.6666 24.133 38.0133C24.3745 38.2199 24.6819 38.3334 24.9997 38.3334C25.3175 38.3334 25.6248 38.2199 25.8663 38.0133C26.333 37.6666 35.6663 29.5333 35.6663 22.3333C35.6663 19.5043 34.5425 16.7912 32.5421 14.7908C30.5418 12.7904 27.8286 11.6666 24.9997 11.6666ZM24.9997 35.2C22.1597 32.5333 16.9997 26.7866 16.9997 22.3333C16.9997 20.2116 17.8425 18.1767 19.3428 16.6764C20.8431 15.1761 22.8779 14.3333 24.9997 14.3333C27.1214 14.3333 29.1562 15.1761 30.6565 16.6764C32.1568 18.1767 32.9997 20.2116 32.9997 22.3333C32.9997 26.7866 27.8397 32.5466 24.9997 35.2ZM24.9997 17C23.9448 17 22.9137 17.3128 22.0366 17.8988C21.1596 18.4848 20.476 19.3178 20.0723 20.2923C19.6686 21.2669 19.563 22.3392 19.7688 23.3738C19.9746 24.4083 20.4826 25.3586 21.2284 26.1045C21.9743 26.8504 22.9246 27.3584 23.9592 27.5641C24.9938 27.7699 26.0661 27.6643 27.0407 27.2606C28.0152 26.857 28.8481 26.1734 29.4342 25.2963C30.0202 24.4193 30.333 23.3881 30.333 22.3333C30.333 20.9188 29.7711 19.5622 28.7709 18.5621C27.7707 17.5619 26.4142 17 24.9997 17ZM24.9997 25C24.4723 25 23.9567 24.8436 23.5182 24.5505C23.0796 24.2575 22.7378 23.8411 22.536 23.3538C22.3342 22.8665 22.2814 22.3303 22.3842 21.8131C22.4871 21.2958 22.7411 20.8206 23.1141 20.4477C23.487 20.0747 23.9621 19.8208 24.4794 19.7179C24.9967 19.615 25.5329 19.6678 26.0202 19.8696C26.5074 20.0714 26.9239 20.4132 27.2169 20.8518C27.5099 21.2903 27.6663 21.8059 27.6663 22.3333C27.6663 23.0405 27.3854 23.7188 26.8853 24.2189C26.3852 24.719 25.7069 25 24.9997 25Z" fill="white"/>
</svg>
