<svg width="15" height="12" viewBox="0 0 15 12" fill="none" xmlns="http://www.w3.org/2000/svg">
<path d="M12.2705 0C12.8507 0 13.4071 0.243131 13.8173 0.675907C14.2275 1.10868 14.458 1.69565 14.458 2.30769V9.69231C14.458 10.3043 14.2275 10.8913 13.8173 11.3241C13.4071 11.7569 12.8507 12 12.2705 12H2.64551C2.06535 12 1.50895 11.7569 1.09871 11.3241C0.688476 10.8913 0.458008 10.3043 0.458008 9.69231V2.30769C0.458008 1.69565 0.688476 1.10868 1.09871 0.675907C1.50895 0.243131 2.06535 0 2.64551 0H12.2705ZM13.583 3.65631L7.68026 7.32092C7.62445 7.35549 7.56207 7.37656 7.49762 7.38263C7.43316 7.38869 7.36823 7.3796 7.30751 7.356L7.23576 7.32092L1.33301 3.65815V9.69231C1.33301 10.0595 1.47129 10.4117 1.71743 10.6714C1.96357 10.931 2.29741 11.0769 2.64551 11.0769H12.2705C12.6186 11.0769 12.9524 10.931 13.1986 10.6714C13.4447 10.4117 13.583 10.0595 13.583 9.69231V3.65631ZM12.2705 0.923077H2.64551C2.29741 0.923077 1.96357 1.06896 1.71743 1.32862C1.47129 1.58829 1.33301 1.94047 1.33301 2.30769V2.58646L7.45801 6.38769L13.583 2.58462V2.30769C13.583 1.94047 13.4447 1.58829 13.1986 1.32862C12.9524 1.06896 12.6186 0.923077 12.2705 0.923077Z" fill="white"/>
</svg>
