<svg width="15" height="14" viewBox="0 0 15 14" fill="none" xmlns="http://www.w3.org/2000/svg">
<path d="M14.0577 1.45478L14.0346 1.44033L11.111 0L7.95549 4.20735L9.40727 6.14318C9.36383 6.87323 9.05423 7.56201 8.5371 8.07915C8.01996 8.59628 7.33117 8.90586 6.60112 8.9493L4.66533 7.49752L0.458008 10.653L1.88635 13.5521L1.89837 13.5766L1.91286 13.5997C1.98908 13.7225 2.09547 13.8238 2.2219 13.8938C2.34833 13.9639 2.49059 14.0005 2.63513 14H3.38952C4.84306 14 6.28236 13.7137 7.62525 13.1575C8.96814 12.6012 10.1883 11.7859 11.2161 10.7581C12.2439 9.73029 13.0592 8.51011 13.6155 7.16721C14.1717 5.82432 14.458 4.38501 14.458 2.93148V2.17706C14.4585 2.03251 14.4219 1.89026 14.3519 1.76383C14.2818 1.6374 14.1805 1.53101 14.0577 1.45478ZM13.3776 2.93148C13.3776 8.43895 8.89695 12.9196 3.38952 12.9196H2.7791L1.82342 10.9795L4.66553 8.84794L6.24787 10.0347H6.42792C7.50565 10.0334 8.53889 9.60478 9.30096 8.84272C10.063 8.08065 10.4917 7.0474 10.4929 5.96968V5.78962L9.30619 4.20732L11.4375 1.36538L13.3776 2.32122V2.93148Z" fill="white"/>
</svg>
